<svg width="148" height="36" viewBox="0 0 148 36" fill="none" xmlns="http://www.w3.org/2000/svg">
<g clip-path="url(#clip0_5425_3098)">
<path fill-rule="evenodd" clip-rule="evenodd" d="M18.0062 30C18.0062 30 8.7002 22.544 8.7002 15.306C8.7002 12.8379 9.68065 10.4709 11.4259 8.72566C13.1711 6.98045 15.5381 6 18.0062 6C20.4743 6 22.8413 6.98045 24.5865 8.72566C26.3317 10.4709 27.3122 12.8379 27.3122 15.306C27.3122 22.544 18.0062 30 18.0062 30Z" stroke="#333333" stroke-width="1.7" stroke-linecap="round" stroke-linejoin="round"/>
<path d="M17.9124 17.907C19.45 17.907 20.6964 16.6606 20.6964 15.123C20.6964 13.5854 19.45 12.339 17.9124 12.339C16.3749 12.339 15.1284 13.5854 15.1284 15.123C15.1284 16.6606 16.3749 17.907 17.9124 17.907Z" stroke="#333333" stroke-width="1.7" stroke-linecap="square" stroke-linejoin="round"/>
</g>
<path fill-rule="evenodd" clip-rule="evenodd" d="M84.9269 8.89295C84.3269 8.29261 83.6146 7.81636 82.8305 7.49144C82.0465 7.16651 81.2061 6.99927 80.3574 6.99927C79.5086 6.99927 78.6682 7.16651 77.8842 7.49144C77.1001 7.81636 76.3878 8.29261 75.7879 8.89295L73.9589 10.7209L72.1319 8.89295C70.9201 7.68091 69.2765 6.99989 67.5626 6.9997C65.8487 6.99951 64.2049 7.68017 62.9929 8.89195C61.7808 10.1037 61.0998 11.7473 61.0996 13.4612C61.0994 15.1751 61.7801 16.8189 62.9919 18.0309L64.8199 19.8599L73.2519 28.2939C73.4394 28.4814 73.6937 28.5867 73.9589 28.5867C74.224 28.5867 74.4783 28.4814 74.6659 28.2939L83.0989 19.8599L84.9269 18.0319C85.5271 17.432 86.0032 16.7198 86.328 15.9358C86.6528 15.1518 86.82 14.3115 86.82 13.4629C86.82 12.6144 86.6528 11.7741 86.328 10.9901C86.0032 10.2061 85.5271 9.49386 84.9269 8.89395V8.89295Z" stroke="#333333" stroke-width="1.7" stroke-linecap="round"/>
<g clip-path="url(#clip1_5425_3098)">
<path fill-rule="evenodd" clip-rule="evenodd" d="M142.844 10.207L140.124 21.777H124.534L121.824 10.207H142.844Z" stroke="#333333" stroke-width="1.7" stroke-linecap="square" stroke-linejoin="round"/>
<path d="M137.684 29.467C138.866 29.467 139.824 28.5089 139.824 27.327C139.824 26.1451 138.866 25.187 137.684 25.187C136.502 25.187 135.544 26.1451 135.544 27.327C135.544 28.5089 136.502 29.467 137.684 29.467Z" stroke="#333333" stroke-width="1.7" stroke-linecap="square" stroke-linejoin="round"/>
<path d="M126.974 29.467C128.156 29.467 129.114 28.5089 129.114 27.327C129.114 26.1451 128.156 25.187 126.974 25.187C125.792 25.187 124.834 26.1451 124.834 27.327C124.834 28.5089 125.792 29.467 126.974 29.467Z" stroke="#333333" stroke-width="1.7" stroke-linecap="square" stroke-linejoin="round"/>
<path d="M117.164 6.547H120.964L122.724 14.047" stroke="#333333" stroke-width="1.7" stroke-linecap="square" stroke-linejoin="round"/>
</g>
<defs>
<clipPath id="clip0_5425_3098">
<rect width="36" height="36" fill="white"/>
</clipPath>
<clipPath id="clip1_5425_3098">
<rect width="36" height="36" fill="white" transform="translate(112)"/>
</clipPath>
</defs>
</svg>
