<svg width="56" height="56" viewBox="0 0 56 56" fill="none" xmlns="http://www.w3.org/2000/svg">
<rect x="0.5" y="0.5" width="55" height="55" rx="3.5" stroke="#E1E1E1"/>
<path d="M24.249 35.875C24.249 36.8695 24.6441 37.8232 25.3473 38.5264C26.0505 39.2296 27.0042 39.6246 27.9986 39.6246C28.9931 39.6246 29.9468 39.2296 30.65 38.5264C31.3532 37.8232 31.7483 36.8695 31.7483 35.875" stroke="#E1E1E1" stroke-width="1.6"/>
<path fill-rule="evenodd" clip-rule="evenodd" d="M39.2477 35.5803H16.75L16.7646 35.5465C16.8501 35.3946 17.2945 34.7545 18.0989 33.6239L18.9426 32.4426V24.9783C18.9426 19.9326 22.8104 15.8208 27.6512 15.6318L28 15.625C33.0018 15.625 37.0562 19.8123 37.0562 24.9783V32.4415L38.9766 35.1539C39.1712 35.4385 39.2624 35.5814 39.2489 35.5814L39.2477 35.5803Z" stroke="#E1E1E1" stroke-width="1.6" stroke-linecap="round" stroke-linejoin="round"/>
</svg>
